<svg width="297" height="52" viewBox="0 0 297 52" fill="none" xmlns="http://www.w3.org/2000/svg">
<path d="M117.855 38.5601C107.186 37.2966 96.0952 36.0332 86.8296 30.5581C84.0219 29.0139 81.4949 26.908 79.6699 24.3811C76.1602 19.7483 75.4583 13.1501 77.7045 7.81544C78.4064 6.27118 79.2487 4.86732 80.3718 3.60383C83.4603 0.374939 88.5142 -0.888551 92.7259 0.655704C93.2874 0.936477 93.9894 1.21724 93.9894 1.91918C93.9894 2.62111 93.4278 3.04227 92.8662 3.32304C89.3566 5.28846 85.0046 5.9904 82.4776 9.07891C80.2314 11.8866 80.2315 16.2386 81.9161 19.4675C83.6007 22.6964 86.8296 24.9426 90.3393 26.2061C87.2508 24.6619 86.2681 20.0291 88.5142 17.3617C88.9354 16.8002 89.7778 16.379 90.3393 16.8002C90.6201 16.9406 90.7604 17.2213 90.7604 17.5021C91.4624 19.1868 90.6201 21.1522 90.6201 22.9772C90.6201 26.2061 93.147 29.0138 95.9548 30.6985C99.3241 32.8043 103.114 33.9274 107.045 33.9274C105.361 33.2254 103.957 31.6812 103.536 29.9965C103.255 28.733 103.676 26.908 105.08 26.908C106.203 26.908 106.765 28.1715 107.186 29.1542C109.432 33.6466 115.047 35.3312 120.101 35.612C125.155 35.8928 130.35 35.1909 135.123 36.7351C134.421 35.4716 133.859 34.3485 133.157 33.0851C133.017 32.8043 132.876 32.5235 132.876 32.1023C132.876 31.4004 133.578 30.8389 134.28 30.8389C134.982 30.8389 135.684 31.1196 136.246 31.5408C139.053 33.2254 148.6 46.7026 148.6 46.7026C148.6 46.7026 140.738 43.1929 138.913 42.6313C135.684 41.5082 132.455 40.8063 129.226 40.2448C125.296 39.5429 121.505 39.1217 117.855 38.5601Z" fill="url(#paint0_linear)"/>
<path d="M138.352 30.9794C137.088 29.9967 135.965 29.014 135.123 27.6102C134.28 26.2063 134 24.5216 134.702 23.1178C134.982 22.4158 135.544 21.8543 136.105 21.4331C137.088 20.5908 138.352 19.8889 139.755 20.0293C141.159 20.3101 142.142 21.4331 142.984 22.5562C143.967 23.9601 144.809 25.364 145.511 26.7678C144.248 25.2236 142.984 23.3985 143.265 21.5735C143.405 20.5908 143.827 19.7485 144.388 19.0466C145.231 17.9235 146.213 17.0812 147.617 16.5196C148.881 16.0985 150.425 16.0984 151.548 16.8004C152.39 17.3619 152.952 18.0638 153.373 18.9062C154.075 20.0293 154.496 21.1523 154.636 22.4158C154.777 23.6793 154.356 25.0832 153.513 25.9255C154.356 23.9601 155.9 21.9947 157.865 21.1524C158.567 20.8716 159.41 20.8716 160.112 20.8716C162.358 21.012 163.06 22.837 163.2 24.1005C163.481 25.9255 162.498 26.9082 161.375 28.1717C158.567 31.6814 155.619 35.191 152.671 38.5603C151.408 39.9642 150.004 41.2277 148.038 40.1046C146.354 39.1219 145.231 37.1564 143.827 35.7526C142.142 34.0679 140.177 32.5237 138.352 30.9794Z" fill="url(#paint1_linear)"/>
<path d="M101.851 36.7352C100.306 36.314 98.6217 36.1736 96.9371 36.0332C94.2698 35.7525 91.6024 35.6121 88.9351 35.6121C86.8293 35.6121 84.5831 35.8929 82.6177 36.7352C80.5119 37.7179 78.9676 39.4025 77.4234 41.0872C76.8618 41.7891 76.1599 42.6314 75.8791 43.4737C75.5983 44.1757 75.4579 45.018 75.8791 45.7199C76.1599 46.4219 77.0022 46.9834 77.7041 46.7026C78.2657 46.5623 78.6868 46.1411 79.108 45.7199C79.6696 44.8776 80.2311 44.0353 80.6523 43.193C80.0907 44.0353 79.3888 45.018 79.9503 45.8603C80.3715 46.5623 81.3542 46.5622 82.0561 46.2815C82.7581 46.0007 83.3196 45.2987 83.7408 44.7372C83.1792 44.8776 83.1792 45.7199 83.7408 46.1411C84.1619 46.4218 84.8639 46.2815 85.285 46.0007C85.7062 45.7199 85.9869 45.1584 86.4081 44.7372C88.0927 42.0699 90.6197 39.9641 93.5678 38.841C95.3929 38.139 97.2179 37.9986 99.0429 37.8583C101.289 37.7179 103.535 37.9987 105.781 38.139C105.501 37.7179 102.412 36.8756 101.851 36.7352Z" fill="url(#paint2_linear)"/>
<path d="M134.28 47.8257C125.576 44.3161 116.03 39.6833 106.624 41.7891C106.062 41.9295 105.641 42.3506 105.079 42.6314C103.535 43.4737 102.131 44.3161 101.008 45.5795C100.447 46.2815 99.7448 47.2642 98.7621 47.2642C97.7794 47.2642 97.0774 46.4219 96.5159 45.5795C96.3755 46.2815 96.3755 46.9834 95.9544 47.6853C95.5332 48.2469 94.8312 48.8085 94.1293 48.8085C93.0062 48.6681 92.4447 47.6854 92.1639 46.5623C91.462 48.2469 90.4793 50.0719 88.7946 51.0546C87.9523 51.4758 86.6888 51.4758 86.408 50.6335C86.2676 50.3527 86.2676 50.0719 86.408 49.7911C86.5484 47.4046 86.8292 45.018 88.5138 43.3333C94.5505 37.9986 103.114 37.7179 110.555 39.1217C110.976 39.2621 111.397 39.2621 111.678 39.4025C119.118 41.0872 126.699 44.3161 134.28 47.8257Z" fill="url(#paint3_linear)"/>
<path d="M139.335 47.8257C136.527 47.5449 133.86 46.8429 131.473 45.4391C130.631 44.8775 129.788 44.316 129.227 43.4737C128.946 43.0525 128.806 42.3506 129.227 41.9294C129.648 41.5082 130.35 41.9294 130.771 42.2102C131.192 42.6313 131.473 43.0525 131.754 43.6141C131.894 43.1929 132.315 42.7717 132.736 42.7717C133.158 42.7717 133.719 43.0525 134 43.3333C134.281 43.614 134.561 44.0352 134.702 44.5968C134.842 44.1756 135.263 43.8948 135.685 43.8948C136.106 43.7545 136.527 43.8948 136.948 44.0352C138.492 44.4564 139.756 45.5794 141.3 46.141C142.985 46.8429 144.81 46.9833 146.635 47.1237C146.775 47.1237 146.915 47.1237 147.056 47.2641C147.056 47.4045 146.915 47.4045 146.775 47.5449C146.354 47.6852 145.792 47.6853 145.371 47.8257C144.389 47.966 143.406 48.1064 142.423 48.1064C141.44 47.8257 140.317 47.8257 139.335 47.8257Z" fill="url(#paint4_linear)"/>
<path d="M89.7775 34.3484C85.0044 33.0849 81.2139 29.5752 76.7215 27.329C71.106 24.5213 64.3675 23.9597 58.3308 25.7848C56.5058 26.3463 54.6808 27.0483 52.7154 26.9079C52.4346 26.9079 52.2942 26.9079 52.1538 26.7675C51.7327 26.4867 51.873 25.7848 52.0134 25.3636C52.9961 23.2578 55.3827 22.4155 57.6289 21.9944C60.2962 21.4328 62.9636 21.0117 65.631 21.2924C64.3675 20.7309 63.2444 20.0289 61.9809 19.4674C61.7001 19.327 61.279 19.0462 61.4194 18.6251C61.4194 18.4847 61.7001 18.3443 61.8405 18.3443C63.5251 17.6424 65.631 17.7828 67.3156 18.4847C69.0003 19.1866 70.5445 20.3097 72.0888 21.4328C71.5272 20.7309 71.1061 19.8886 70.6849 19.0462C71.6676 18.6251 72.7907 19.1866 73.4926 19.8886C74.4753 20.7309 75.458 21.5732 76.3004 22.5559C77.7042 24.1002 78.8273 25.9252 80.3716 27.6098C81.9158 29.4349 83.7408 30.8387 85.8466 31.9618C86.8294 32.5234 87.9525 33.0849 89.0756 33.3657C89.6371 33.5061 90.1986 33.7868 90.7602 33.9272C91.3217 34.0676 92.0237 34.0676 92.5852 34.3484C93.2872 34.6292 92.5852 34.9099 92.1641 34.9099C91.3217 34.7695 90.4794 34.6292 89.7775 34.3484Z" fill="url(#paint5_linear)"/>
<path d="M75.037 14.9752C74.6158 13.5714 74.1946 12.1675 74.4754 10.7636C74.6158 9.35976 75.3177 8.09626 76.16 6.97316C77.0024 5.85007 77.9851 4.86738 78.8274 3.74429C79.1081 3.32313 79.3889 2.90197 79.2486 2.48081C79.1082 1.77888 78.1254 1.3577 77.4235 1.49809C76.16 1.49809 75.0369 2.05964 74.1946 3.04235C73.3523 4.02506 72.9311 5.28853 73.0715 6.41163C72.9311 6.27124 72.6504 6.13087 72.51 5.99048C71.6676 5.56932 70.685 5.56929 69.8426 6.13084C69.1407 6.69238 68.7195 7.67512 68.8599 8.65782C69.1407 9.78092 69.983 10.6232 70.9657 11.3252C70.4042 11.1848 69.8426 11.8867 69.8426 12.4482C69.8426 13.2906 70.5446 13.9925 71.2465 14.6944C71.9484 15.3964 72.6504 15.9579 73.2119 16.6598C73.6331 17.081 74.335 18.0637 75.037 18.2041C76.862 18.2041 75.1773 15.5368 75.037 14.9752Z" fill="url(#paint6_linear)"/>
<path d="M179.063 38.5601C189.732 37.2966 200.823 36.0332 210.089 30.5581C212.896 29.0139 215.423 26.908 217.248 24.3811C220.758 19.7483 221.46 13.1501 219.214 7.81544C218.512 6.27118 217.669 4.86732 216.546 3.60383C213.458 0.374939 208.404 -0.888551 204.192 0.655704C203.631 0.936477 202.929 1.21724 202.929 1.91918C202.929 2.62111 203.49 3.04227 204.052 3.32304C207.562 5.28846 211.914 5.9904 214.441 9.07891C216.687 11.8866 216.687 16.2386 215.002 19.4675C213.317 22.6964 210.089 24.9426 206.579 26.2061C209.667 24.6619 210.65 20.0291 208.404 17.3617C207.983 16.8002 207.14 16.379 206.579 16.8002C206.298 16.9406 206.158 17.2213 206.158 17.5021C205.456 19.1868 206.298 21.1522 206.298 22.9772C206.298 26.2061 203.771 29.0138 200.963 30.6985C197.594 32.8043 193.804 33.9274 189.873 33.9274C191.557 33.2254 192.961 31.6812 193.383 29.9965C193.663 28.733 193.242 26.908 191.838 26.908C190.715 26.908 190.154 28.1715 189.732 29.1542C187.486 33.6466 181.871 35.3312 176.817 35.612C171.763 35.8928 166.569 35.1909 161.795 36.7351C162.497 35.4716 163.059 34.3485 163.761 33.0851C163.901 32.8043 164.042 32.5235 164.042 32.1023C164.042 31.4004 163.34 30.8389 162.638 30.8389C161.936 30.8389 161.234 31.1196 160.672 31.5408C157.865 33.2254 148.318 46.7026 148.318 46.7026C148.318 46.7026 156.18 43.1929 158.005 42.6313C161.234 41.5082 164.463 40.8063 167.692 40.2448C171.623 39.5429 175.413 39.1217 179.063 38.5601Z" fill="url(#paint7_linear)"/>
<path d="M195.068 36.7352C196.612 36.314 198.296 36.1736 199.981 36.0332C202.648 35.7525 205.316 35.6121 207.983 35.6121C210.089 35.6121 212.335 35.8929 214.301 36.7352C216.406 37.7179 217.951 39.4025 219.495 41.0872C220.056 41.7891 220.758 42.6314 221.039 43.4737C221.32 44.1757 221.46 45.018 221.039 45.7199C220.758 46.4219 219.916 46.9834 219.214 46.7026C218.653 46.5623 218.231 46.1411 217.81 45.7199C217.249 44.8776 216.687 44.0353 216.266 43.193C216.827 44.0353 217.529 45.018 216.968 45.8603C216.547 46.5623 215.564 46.5622 214.862 46.2815C214.16 46.0007 213.599 45.2987 213.177 44.7372C213.739 44.8776 213.739 45.7199 213.177 46.1411C212.756 46.4218 212.054 46.2815 211.633 46.0007C211.212 45.7199 210.931 45.1584 210.51 44.7372C208.825 42.0699 206.299 39.9641 203.35 38.841C201.525 38.139 199.7 37.9986 197.875 37.8583C195.629 37.7179 193.383 37.9987 191.137 38.139C191.417 37.7179 194.506 36.8756 195.068 36.7352Z" fill="url(#paint8_linear)"/>
<path d="M162.639 47.8257C171.343 44.3161 180.889 39.6833 190.295 41.7891C190.856 41.9295 191.278 42.3506 191.839 42.6314C193.383 43.4737 194.787 44.3161 195.91 45.5795C196.472 46.2815 197.174 47.2642 198.157 47.2642C199.139 47.2642 199.841 46.4219 200.403 45.5795C200.543 46.2815 200.543 46.9834 200.964 47.6853C201.385 48.2469 202.087 48.8085 202.789 48.8085C203.912 48.6681 204.474 47.6854 204.755 46.5623C205.457 48.2469 206.439 50.0719 208.124 51.0546C208.966 51.4758 210.23 51.4758 210.511 50.6335C210.651 50.3527 210.651 50.0719 210.511 49.7911C210.37 47.4046 210.089 45.018 208.405 43.3333C202.368 37.9986 193.805 37.7179 186.364 39.1217C185.943 39.2621 185.522 39.2621 185.241 39.4025C177.8 41.0872 170.22 44.3161 162.639 47.8257Z" fill="url(#paint9_linear)"/>
<path d="M157.585 47.8257C160.392 47.5449 163.06 46.8429 165.446 45.4391C166.289 44.8775 167.131 44.316 167.692 43.4737C167.973 43.0525 168.114 42.3506 167.692 41.9294C167.271 41.5082 166.569 41.9294 166.148 42.2102C165.727 42.6313 165.446 43.0525 165.165 43.6141C165.025 43.1929 164.604 42.7717 164.183 42.7717C163.762 42.7717 163.2 43.0525 162.919 43.3333C162.638 43.614 162.358 44.0352 162.217 44.5968C162.077 44.1756 161.656 43.8948 161.235 43.8948C160.813 43.8948 160.392 43.8948 159.971 44.0352C158.427 44.4564 157.163 45.5794 155.619 46.141C153.935 46.8429 152.109 46.9833 150.284 47.1237C150.144 47.1237 150.004 47.1237 149.863 47.2641C149.863 47.4045 150.004 47.4045 150.144 47.5449C150.565 47.6852 151.127 47.6853 151.548 47.8257C152.531 47.966 153.513 48.1064 154.496 48.1064C155.479 47.8257 156.602 47.8257 157.585 47.8257Z" fill="url(#paint10_linear)"/>
<path d="M207.141 34.3484C211.914 33.0849 215.705 29.5752 220.197 27.329C225.813 24.5213 232.551 23.9597 238.588 25.7848C240.413 26.3463 242.238 27.0483 244.203 26.9079C244.484 26.9079 244.624 26.9079 244.765 26.7675C245.186 26.4867 245.046 25.7848 244.905 25.3636C243.923 23.2578 241.536 22.4155 239.29 21.9944C236.622 21.4328 233.955 21.0117 231.288 21.2924C232.551 20.7309 233.674 20.0289 234.938 19.4674C235.219 19.327 235.64 19.0462 235.499 18.6251C235.499 18.4847 235.219 18.3443 235.078 18.3443C233.394 17.6424 231.288 17.7828 229.603 18.4847C227.918 19.1866 226.374 20.3097 224.83 21.4328C225.391 20.7309 225.813 19.8886 226.234 19.0462C225.251 18.6251 224.128 19.1866 223.426 19.8886C222.443 20.7309 221.461 21.5732 220.618 22.5559C219.214 24.1002 218.091 25.9252 216.547 27.6098C215.003 29.4349 213.178 30.8387 211.072 31.9618C210.089 32.5234 208.966 33.0849 207.843 33.3657C207.282 33.5061 206.72 33.7868 206.158 33.9272C205.597 34.0676 204.895 34.0676 204.333 34.3484C203.632 34.6292 204.333 34.9099 204.755 34.9099C205.597 34.7695 206.439 34.6292 207.141 34.3484Z" fill="url(#paint11_linear)"/>
<path d="M221.882 14.9752C222.303 13.5714 222.724 12.1675 222.443 10.7636C222.303 9.35976 221.601 8.09626 220.759 6.97316C219.916 5.85007 218.934 4.86738 218.091 3.74429C217.811 3.32313 217.53 2.90197 217.67 2.48081C217.811 1.77888 218.793 1.3577 219.495 1.49809C220.759 1.49809 221.882 2.05964 222.724 3.04235C223.566 4.02506 223.988 5.28853 223.847 6.41163C223.988 6.27124 224.268 6.13087 224.409 5.99048C225.251 5.56932 226.234 5.56929 227.076 6.13084C227.778 6.69238 228.199 7.67512 228.059 8.65782C227.778 9.78092 226.936 10.6232 225.953 11.3252C226.515 11.1848 227.076 11.8867 227.076 12.4482C227.076 13.2906 226.374 13.9925 225.672 14.6944C224.97 15.3964 224.268 15.9579 223.707 16.6598C223.286 17.081 222.584 18.0637 221.882 18.2041C220.057 18.2041 221.741 15.5368 221.882 14.9752Z" fill="url(#paint12_linear)"/>
<path d="M254.452 43.4736C254.733 43.614 255.154 43.7544 255.435 43.7544C255.435 43.7544 255.435 43.7544 255.435 43.8948C255.014 44.3159 254.171 44.5967 253.329 44.737C252.487 45.0178 251.504 45.1582 250.662 45.2986C247.573 44.1755 244.765 42.7716 241.677 41.5082C237.044 39.5427 232.411 37.8581 227.498 36.4542C224.971 35.7523 222.444 35.1907 219.917 34.91C218.373 34.6292 215.425 35.0504 214.723 33.3657C216.127 32.8042 217.952 32.6638 219.355 32.5234C221.882 32.2426 224.55 32.1022 227.077 32.383C236.904 33.5061 245.187 40.1043 254.452 43.4736Z" fill="url(#paint13_linear)"/>
<path d="M296.848 37.5774C296.567 41.0871 294.04 44.0352 291.092 45.8602C288.144 47.6852 284.634 48.3872 281.265 48.8083C275.649 49.5103 270.034 49.5103 264.559 48.8083C265.541 47.966 266.664 46.9833 267.647 45.8602C271.578 46.0006 275.509 45.4391 279.299 44.4563C280.142 44.1756 280.984 43.8948 281.826 43.4736C282.668 42.9121 283.23 41.9294 283.932 41.2274C284.634 40.6659 285.757 40.3851 286.459 40.9467C285.195 39.6832 284.213 37.9985 284.634 36.3139C284.915 35.1908 286.038 34.3485 287.02 34.2081C284.915 33.2254 283.23 31.8215 282.107 29.8561C281.686 29.1542 281.265 28.3119 281.265 27.4695C280.984 24.5214 284.493 22.4156 287.442 22.9771C290.39 23.5387 292.496 26.0657 294.18 28.4523C295.724 31.26 297.269 34.3485 296.848 37.5774Z" fill="url(#paint14_linear)"/>
<path d="M232.973 46.0006C236.061 47.6852 239.29 49.2295 242.659 50.0718C246.029 50.9141 249.398 50.9141 252.908 50.7737C255.154 50.7737 257.54 50.6333 259.787 49.791C263.156 48.6679 265.823 46.0006 267.929 43.0524C270.035 40.2447 271.72 36.735 271.018 33.2254C270.596 30.9792 269.333 29.0137 268.069 27.1887C267.508 26.3464 266.806 25.3637 265.823 24.8022C264.56 24.1002 262.875 24.2406 261.471 24.8022C259.365 25.6445 257.4 27.4695 257.54 29.8561C257.54 31.4003 258.523 32.8042 259.506 34.0677C258.664 32.9446 256.558 33.085 255.856 34.3484C255.435 35.1908 255.575 36.3139 256.277 37.1562C256.839 37.9985 257.681 38.5601 258.664 38.9812C257.54 38.5601 256.137 39.9639 256.558 41.087C256.698 41.5082 256.979 41.789 257.26 42.2101C257.681 43.1928 257.26 44.3159 256.558 45.0178C255.856 45.7198 254.873 46.0005 253.75 46.2813C249.538 47.4044 244.906 47.2641 240.694 46.0006C234.657 44.1755 229.463 39.9639 223.286 37.9985C221.742 37.5773 219.776 36.8754 218.092 37.0158C218.373 37.9985 220.057 38.56 220.9 39.1216C222.163 39.8235 223.567 40.6658 224.83 41.3678C227.638 43.0524 230.305 44.4563 232.973 46.0006Z" fill="url(#paint15_linear)"/>
<path d="M42.4671 43.4736C42.1863 43.614 41.7651 43.7544 41.4844 43.7544C41.4844 43.7544 41.4844 43.7544 41.4844 43.8948C41.9055 44.3159 42.7479 44.5967 43.5902 44.737C44.4325 45.0178 45.4152 45.1582 46.2576 45.2986C49.3461 44.1755 52.1538 42.7716 55.2423 41.5082C59.8751 39.5427 64.5078 37.8581 69.4214 36.4542C71.9483 35.7523 74.4753 35.1907 77.0023 34.91C78.5465 34.6292 81.4946 35.0504 82.1965 33.3657C80.7927 32.8042 78.9677 32.6638 77.5638 32.5234C75.0368 32.2426 72.3695 32.1022 69.8425 32.383C60.0154 33.5061 51.7326 40.1043 42.4671 43.4736Z" fill="url(#paint16_linear)"/>
<path d="M0.0703207 37.5774C0.351094 41.0871 2.87806 44.0352 5.82619 45.8602C8.77431 47.6852 12.284 48.3872 15.6533 48.8083C21.2687 49.5103 26.8842 49.5103 32.3593 48.8083C31.3766 47.966 30.2535 46.9833 29.2708 45.8602C25.34 46.0006 21.4091 45.4391 17.6187 44.4563C16.7763 44.1756 15.934 43.8948 15.0917 43.4736C14.2494 42.9121 13.6879 41.9294 12.9859 41.2274C12.284 40.6659 11.1609 40.3851 10.459 40.9467C11.7225 39.6832 12.7051 37.9985 12.284 36.3139C12.0032 35.1908 10.8801 34.3485 9.89739 34.2081C12.0032 33.2254 13.6878 31.8215 14.8109 29.8561C15.2321 29.1542 15.6533 28.3119 15.6533 27.4695C15.934 24.5214 12.4244 22.4156 9.47625 22.9771C6.52813 23.5387 4.42234 26.0657 2.7377 28.4523C1.19345 31.26 -0.35084 34.3485 0.0703207 37.5774Z" fill="url(#paint17_linear)"/>
<path d="M63.9468 46.0006C60.8582 47.6852 57.6294 49.2295 54.2601 50.0718C50.8908 50.9141 47.5215 50.9141 44.0119 50.7737C41.7657 50.7737 39.3791 50.6333 37.1329 49.791C33.7636 48.6679 31.0963 46.0006 28.9905 43.0524C26.8847 40.2447 25.2 36.735 25.902 33.2254C26.3231 30.9792 27.5866 29.0137 28.8501 27.1887C29.4116 26.3464 30.1136 25.3637 31.0963 24.8022C32.3597 24.1002 34.0444 24.2406 35.4483 24.8022C37.5541 25.6445 39.5195 27.4695 39.3791 29.8561C39.3791 31.4003 38.3964 32.8042 37.4137 34.0677C38.256 32.9446 40.3618 33.085 41.0637 34.3484C41.4849 35.1908 41.3445 36.3139 40.6426 37.1562C40.081 37.9985 39.2387 38.5601 38.256 38.9812C39.3791 38.5601 40.783 39.9639 40.3618 41.087C40.2214 41.5082 39.9406 41.789 39.6599 42.2101C39.2387 43.1928 39.6599 44.3159 40.3618 45.0178C41.0637 45.7198 42.0464 46.0005 43.1695 46.2813C47.3811 47.4044 52.0139 47.2641 56.2255 46.0006C62.2621 44.1755 67.4565 39.9639 73.6335 37.9985C75.1777 37.5773 77.1431 36.8754 78.8278 37.0158C78.547 37.9985 76.8623 38.56 76.02 39.1216C74.7565 39.8235 73.3527 40.6658 72.0892 41.3678C69.2815 43.0524 66.6141 44.4563 63.9468 46.0006Z" fill="url(#paint18_linear)"/>
<defs>
<linearGradient id="paint0_linear" x1="112.506" y1="0" x2="112.506" y2="46.7026" gradientUnits="userSpaceOnUse">
<stop stop-color="#FFBA27"/>
<stop offset="1" stop-color="#745513"/>
</linearGradient>
<linearGradient id="paint1_linear" x1="148.776" y1="16.2322" x2="148.776" y2="40.5365" gradientUnits="userSpaceOnUse">
<stop stop-color="#FFBA27"/>
<stop offset="1" stop-color="#745513"/>
</linearGradient>
<linearGradient id="paint2_linear" x1="90.6974" y1="35.6121" x2="90.6974" y2="46.7765" gradientUnits="userSpaceOnUse">
<stop stop-color="#FFBA27"/>
<stop offset="1" stop-color="#745513"/>
</linearGradient>
<linearGradient id="paint3_linear" x1="110.291" y1="38.4019" x2="110.291" y2="51.3313" gradientUnits="userSpaceOnUse">
<stop stop-color="#FFBA27"/>
<stop offset="1" stop-color="#745513"/>
</linearGradient>
<linearGradient id="paint4_linear" x1="138.008" y1="41.7512" x2="138.008" y2="48.1064" gradientUnits="userSpaceOnUse">
<stop stop-color="#FFBA27"/>
<stop offset="1" stop-color="#745513"/>
</linearGradient>
<linearGradient id="paint5_linear" x1="72.3783" y1="17.8828" x2="72.3783" y2="34.9099" gradientUnits="userSpaceOnUse">
<stop stop-color="#FFBA27"/>
<stop offset="1" stop-color="#745513"/>
</linearGradient>
<linearGradient id="paint6_linear" x1="74.0595" y1="1.47119" x2="74.0595" y2="18.2041" gradientUnits="userSpaceOnUse">
<stop stop-color="#FFBA27"/>
<stop offset="1" stop-color="#745513"/>
</linearGradient>
<linearGradient id="paint7_linear" x1="184.412" y1="0" x2="184.412" y2="46.7026" gradientUnits="userSpaceOnUse">
<stop stop-color="#FFBA27"/>
<stop offset="1" stop-color="#745513"/>
</linearGradient>
<linearGradient id="paint8_linear" x1="206.221" y1="35.6121" x2="206.221" y2="46.7765" gradientUnits="userSpaceOnUse">
<stop stop-color="#FFBA27"/>
<stop offset="1" stop-color="#745513"/>
</linearGradient>
<linearGradient id="paint9_linear" x1="186.627" y1="38.4019" x2="186.627" y2="51.3313" gradientUnits="userSpaceOnUse">
<stop stop-color="#FFBA27"/>
<stop offset="1" stop-color="#745513"/>
</linearGradient>
<linearGradient id="paint10_linear" x1="158.911" y1="41.7512" x2="158.911" y2="48.1064" gradientUnits="userSpaceOnUse">
<stop stop-color="#FFBA27"/>
<stop offset="1" stop-color="#745513"/>
</linearGradient>
<linearGradient id="paint11_linear" x1="224.54" y1="17.8828" x2="224.54" y2="34.9099" gradientUnits="userSpaceOnUse">
<stop stop-color="#FFBA27"/>
<stop offset="1" stop-color="#745513"/>
</linearGradient>
<linearGradient id="paint12_linear" x1="222.859" y1="1.47119" x2="222.859" y2="18.2041" gradientUnits="userSpaceOnUse">
<stop stop-color="#FFBA27"/>
<stop offset="1" stop-color="#745513"/>
</linearGradient>
<linearGradient id="paint13_linear" x1="235.079" y1="32.23" x2="235.079" y2="45.2986" gradientUnits="userSpaceOnUse">
<stop stop-color="#FFBA27"/>
<stop offset="1" stop-color="#745513"/>
</linearGradient>
<linearGradient id="paint14_linear" x1="280.738" y1="22.8862" x2="280.738" y2="49.3348" gradientUnits="userSpaceOnUse">
<stop stop-color="#FFBA27"/>
<stop offset="1" stop-color="#745513"/>
</linearGradient>
<linearGradient id="paint15_linear" x1="244.636" y1="24.3269" x2="244.636" y2="50.8433" gradientUnits="userSpaceOnUse">
<stop stop-color="#FFBA27"/>
<stop offset="1" stop-color="#745513"/>
</linearGradient>
<linearGradient id="paint16_linear" x1="61.8405" y1="32.23" x2="61.8405" y2="45.2986" gradientUnits="userSpaceOnUse">
<stop stop-color="#FFBA27"/>
<stop offset="1" stop-color="#745513"/>
</linearGradient>
<linearGradient id="paint17_linear" x1="16.1796" y1="22.8862" x2="16.1796" y2="49.3348" gradientUnits="userSpaceOnUse">
<stop stop-color="#FFBA27"/>
<stop offset="1" stop-color="#745513"/>
</linearGradient>
<linearGradient id="paint18_linear" x1="52.284" y1="24.3269" x2="52.284" y2="50.8433" gradientUnits="userSpaceOnUse">
<stop stop-color="#FFBA27"/>
<stop offset="1" stop-color="#745513"/>
</linearGradient>
</defs>
</svg>
