<svg width="52" height="52" viewBox="0 0 52 52" fill="none" xmlns="http://www.w3.org/2000/svg">
<circle cx="26" cy="26" r="25.5" fill="#0D0C0C" stroke="#FFBA27"/>
<mask id="mask0" mask-type="alpha" maskUnits="userSpaceOnUse" x="17" y="17" width="18" height="18">
<path fill-rule="evenodd" clip-rule="evenodd" d="M20.62 24.79C22.06 27.62 24.38 29.93 27.21 31.38L29.41 29.18C29.68 28.91 30.08 28.82 30.43 28.94C31.55 29.31 32.76 29.51 34 29.51C34.55 29.51 35 29.96 35 30.51V34C35 34.55 34.55 35 34 35C24.61 35 17 27.39 17 18C17 17.45 17.45 17 18 17H21.5C22.05 17 22.5 17.45 22.5 18C22.5 19.25 22.7 20.45 23.07 21.57C23.18 21.92 23.1 22.31 22.82 22.59L20.62 24.79Z" fill="white"/>
</mask>
<g mask="url(#mask0)">
<rect x="13" y="13" width="26" height="26" fill="#FFBA27"/>
</g>
</svg>
